PathFileType	4	(X/Y/Z)	C:/Users/beibeiliu/ov580/test_trc/User2\sequence.43_training_dense_right.trc
DataRate	CameraRate	NumFrames	NumMarkers	Units	OrigDataRate	OrigDataStartFrame	OrigNumFrames
120	120	20	19	mm	120	1	107
Frame#	Time	ThumbCMC			ThumbMCP			ThumbIP			ThumbTip			IndexMCP			IndexPIP			IndexTip			MiddleMCP			MiddlePIP			MiddleTip			RingMCP			RingPIP			RingTip			PinkyMCP			PinkyPIP			PinkyTip			BackHand1			BackHand2			BackHand3	
		X0	Y0	Z0	X1	Y1	Z1	X2	Y2	Z2	X3	Y3	Z3	X4	Y4	Z4	X5	Y5	Z5	X6	Y6	Z6	X7	Y7	Z7	X8	Y8	Z8	X9	Y9	Z9	X10	Y10	Z10	X11	Y11	Z11	X12	Y12	Z12	X13	Y13	Z13	X14	Y14	Z14	X15	Y15	Z15	X16	Y16	Z16	X17	Y17	Z17	X18	Y18	Z18	
0	0	33.0357	18.9704	17.6368	-0.0954267	20.8277	8.35059	-27.9316	21.8366	-12.7079	-46.5614	19.6199	-27.7559	18.2772	46.0892	-62.6436	2.73179	47.7109	-88.9411	-11.0729	51.2498	-108.044	47.8117	51.2054	-77.7082	36.2794	55.8154	-105.05	32.0738	63.5916	-135.543	74.4337	41.6526	-80.8819	74.0098	46.1455	-106.587	75.5219	54.9629	-133.794	99.9371	24.3837	-72.4316	109.51	24.1349	-95.0763	120.009	29.4225	-112.656	84.6027	39.0754	-25.7407	93.9345	39.6268	7.88465	56.4091	42.71	1.3998	
1	0.00833333	30.6494	19.6017	14.7202	5.41079	18.3141	7.32056	-25.0518	21.0856	-15.0442	-46.5384	17.5829	-24.1583	19.1662	43.9584	-61.9549	1.88622	46.9438	-86.1894	-8.38038	50.0429	-111.791	45.3364	49.6762	-74.766	35.0564	55.7133	-107.493	31.4697	63.7114	-135.751	72.8491	42.0105	-81.7092	79.2607	43.61	-103.402	74.807	53.8978	-132.554	99.7744	23.2419	-71.1539	110.207	23.7663	-95.6243	116.802	30.2145	-116.941	85.2906	37.7957	-24.7278	94.9609	37.996	8.12405	55.9671	43.5082	-0.307139	
2	0.0166667	31.9904	18.4682	20.2964	5.694	18.7436	4.79096	-25.0255	21.0368	-13.7265	-43.4032	18.603	-26.9759	20.1006	44.2769	-61.92	3.58162	45.9462	-81.8774	-5.88132	49.8497	-108.199	44.9243	50.8113	-79.0114	36.1269	55.6004	-106.424	32.7549	63.6447	-136.771	76.7477	41.3059	-80.0618	76.0138	43.9186	-102.416	76.1987	52.0958	-131.434	100.891	24.8201	-71.6685	109.772	22.0507	-93.1106	116.357	28.6921	-112.846	86.7758	38.3935	-25.2492	97.9625	39.3991	5.53147	59.2009	43.8776	1.19925	
3	0.025	30.0532	19.9601	17.9267	4.46671	18.7799	8.0024	-24.8554	21.7871	-15.2686	-45.9247	18.7075	-26.8428	19.0773	45.1022	-58.9782	1.84438	47.6597	-85.2832	-5.81688	51.7144	-109.483	50.0643	51.4086	-77.971	40.5903	56.518	-108.528	36.6195	62.8074	-136.059	75.3935	43.5273	-81.0897	77.4689	46.3518	-105.875	75.0079	52.6557	-131.826	100.957	25.3662	-70.055	108.343	22.8023	-91.3036	118.865	30.0084	-116.272	84.4401	41.039	-23.8271	97.2104	37.4681	8.73615	54.7001	44.2767	-0.875951	
4	0.0333333	28.0628	21.1617	17.8711	4.34318	19.0548	7.20949	-25.452	21.6247	-13.1249	-46.2236	18.8357	-27.3614	18.2599	47.7296	-61.8037	2.34511	49.6883	-81.0525	-6.15201	53.1519	-107.779	46.1722	52.7917	-72.1691	38.0882	58.024	-106.878	33.544	64.928	-132.518	74.7049	43.0167	-75.4368	73.8391	48.221	-105.354	74.4262	55.9863	-131.817	101.574	25.1791	-66.9949	109.153	25.9965	-94.9667	117.658	29.8548	-116.804	85.2537	40.3918	-19.9635	99.2661	39.6281	9.36753	60.138	43.6617	2.30171	
5	0.0416667	27.0054	21.5861	17.2931	4.36809	19.4474	6.54518	-23.7291	19.9159	-9.89142	-45.1059	18.5142	-24.5025	14.9929	49.9178	-57.5567	3.48325	54.131	-83.5409	-14.4565	58.3624	-105.814	47.1185	56.5205	-71.4981	39.9979	62.2881	-102.483	31.8195	68.6696	-129.425	71.8188	47.9975	-77.5396	75.4111	51.2453	-101.331	70.2684	57.6163	-127.27	101.805	29.114	-70.0757	104.632	28.481	-91.826	116.795	33.6543	-117.467	87.3428	42.5652	-22.5009	94.5103	40.6364	8.60752	57.4185	46.0551	0.221738	
6	0.05	28.0128	22.8835	18.483	0.200129	22.3045	10.6758	-29.9285	24.4532	-9.58403	-48.8225	20.7197	-23.13	14.5741	56.6351	-55.1244	-2.9521	61.3388	-78.2632	-10.7524	65.946	-104.224	42.2062	64.011	-68.3701	35.1815	69.6362	-98.7704	28.9269	76.6413	-128.568	73.8914	54.1387	-75.9033	73.8873	57.196	-100.081	70.6939	63.3748	-126.102	96.1751	34.6052	-67.1395	104.326	31.8962	-94.22	110.218	36.4309	-119.48	83.354	47.6422	-16.3888	91.7484	42.7184	13.3966	54.193	48.7316	4.09469	
7	0.0583333	27.2174	24.9056	24.575	-0.842528	25.5546	10.8942	-28.3408	27.0772	-10.7436	-47.3371	25.8753	-29.0098	11.995	65.3708	-50.0423	-1.44687	70.8166	-77.2791	-14.5154	76.2498	-101.619	42.3595	71.2344	-66.898	33.1199	78.0624	-96.5779	28.0576	85.4087	-129.821	72.0297	59.2466	-74.5756	71.6473	62.9156	-99.5443	63.9538	69.222	-123.661	93.2987	39.9925	-65.0748	95.2113	37.1337	-90.7022	101.916	39.8443	-117.349	81.0003	54.6137	-17.2585	92.7376	45.9974	17.3424	52.633	53.0437	11.0846	
8	0.0666667	27.4105	31.1276	21.6055	-1.41178	28.3806	11.2123	-24.3707	29.2568	-12.7004	-40.0823	27.9979	-36.2629	13.4599	75.1196	-46.3379	-1.67454	82.759	-69.1956	-10.7923	86.8501	-92.7782	42.616	80.1624	-60.4278	31.7964	88.2556	-93.6825	24.9738	93.0382	-118.319	67.314	67.6505	-65.9964	65.052	70.5179	-92.7998	59.8569	77.0086	-123.46	90.5433	47.0803	-65.1881	87.1006	44.2176	-91.7792	92.2636	43.2221	-114.424	85.3097	59.3423	-13.7137	95.2202	50.1457	16.1375	56.624	57.0192	14.547	
9	0.075	26.1013	37.3246	30.4801	-1.7336	33.0782	9.0332	-20.2307	33.3211	-19.2008	-21.5278	34.6926	-50.7629	15.821	89.903	-37.6234	-1.30341	97.3573	-56.5672	-12.6096	103.229	-86.2244	37.9924	95.6744	-52.3471	29.5807	103.8	-84.3692	21.0302	109.16	-109.854	65.3519	79.9633	-59.7444	59.4649	84.0285	-85.8928	51.8544	89.5383	-114.365	87.8882	58.0895	-61.5112	81.2544	56.7607	-86.4092	78.5613	60.5124	-109.404	80.4432	65.82	-5.01104	94.6993	57.5849	19.7866	59.2362	67.3168	21.6063	
10	0.0833333	27.2663	42.2039	28.8315	-1.60748	39.0168	2.69207	-8.62937	39.1205	-33.0872	11.6404	42.6345	-58.4859	13.3984	95.5228	-26.7481	-5.09885	107.55	-51.9723	-11.2711	114.548	-76.1648	37.8226	102.023	-46.416	30.2779	112.486	-74.0725	19.5217	120.312	-102.664	62.7222	90.4192	-56.8641	57.1493	96.6621	-79.2005	48.6152	105.319	-105.287	85.7992	67.3408	-56.5493	79.1399	70.4669	-80.4597	78.0684	79.396	-105.674	79.8061	71.1667	0.97688	94.0074	62.1353	28.1298	56.8137	69.757	26.2438	
11	0.0916667	26.1946	37.2528	31.6124	5.37079	39.0416	0.275419	8.77838	45.6273	-40.8616	34.7876	49.017	-58.0449	7.38957	96.6937	-24.7652	-6.57549	109.14	-47.4517	-19.4097	118.693	-71.3407	32.9948	102.196	-39.2459	24.2211	117.008	-69.2284	12.5468	129.241	-93.9017	59.6726	95.045	-50.5926	55.6842	104.156	-72.8997	45.0771	118.915	-98.3592	79.4295	74.5984	-54.2899	80.959	80.387	-78.5634	83.3912	90.58	-98.2753	77.6646	73.8986	-2.61241	90.8166	61.685	27.3367	49.8421	71.2665	26.2536	
12	0.1	24.0795	35.614	29.4554	6.44894	38.224	-3.95902	14.3262	43.5006	-39.4991	41.3663	48.4072	-54.4673	4.50424	97.088	-25.2484	-8.10364	107.843	-46.2768	-22.4609	116.955	-64.2085	29.79	105.316	-41.4005	23.2511	119.384	-69.6448	13.5163	133.147	-91.6336	57.729	97.1883	-48.6562	56.1153	110.631	-71.8921	44.4537	127.148	-91.226	83.2009	75.6419	-52.8944	82.0495	83.9921	-74.5811	85.1946	97.9543	-93.4485	76.0125	73.7536	-0.759013	89.5916	60.0651	25.2576	51.3467	69.5344	29.0568	
13	0.108333	28.9474	33.5813	22.6643	7.73007	34.8939	-8.36624	19.4267	41.8665	-42.0679	44.6703	43.4321	-56.0415	10.4891	90.2079	-30.1826	-5.3929	103.184	-50.9059	-22.151	115.549	-73.0927	37.7595	98.9359	-43.6056	26.4537	114.747	-68.6871	15.5413	133.083	-95.5218	62.5012	93.7996	-52.8579	54.0389	106.569	-70.0736	50.7422	123.061	-90.5771	87.8589	69.4086	-52.4369	88.5417	81.6208	-77.66	89.4992	94.9864	-91.6914	77.9772	67.0728	-2.40923	90.7181	57.6287	21.1964	51.8346	65.6268	25.3441	
14	0.116667	28.6751	25.135	16.5996	5.9822	26.2167	-14.0106	19.705	32.9647	-48.7687	51.3566	36.0309	-60.8648	8.75039	81.7411	-40.0871	-4.37783	92.4413	-62.2918	-19.2978	102.535	-80.1154	35.0699	88.1372	-52.4789	29.6811	102.598	-77.6063	18.1314	120.887	-103.022	66.0038	81.7673	-59.6697	59.6118	98.3751	-80.8692	52.1303	115.825	-101.187	88.9605	59.0311	-58.8092	94.7063	69.4884	-80.2401	96.4945	87.8514	-99.5985	82.2566	57.8423	-12.6679	91.1645	49.0981	16.9484	52.4742	56.8731	13.0166	
15	0.125	28.0811	25.2546	14.7505	8.66734	25.1901	-15.5402	18.2041	29.8003	-51.6424	47.2722	30.649	-63.4848	10.8407	79.0285	-42.7071	-4.93765	90.0289	-64.709	-18.3035	100.591	-83.8996	37.4606	86.9609	-58.1286	26.0751	102.387	-82.5532	18.623	117.66	-104.63	63.2783	80.1759	-61.8971	65.4566	92.6305	-81.8457	57.011	111.591	-104.714	91.7255	56.9005	-62.1301	95.9252	66.5043	-84.1022	98.6201	83.2911	-102.004	85.6359	56.5732	-14.9266	95.6685	49.3652	11.0358	55.5918	54.1047	12.33	
16	0.133333	31.7082	25.4608	15.0566	6.99569	27.2891	-14.9438	20.6281	32.1761	-50.7855	47.0923	31.3942	-63.5456	11.6428	80.8018	-43.0284	-3.9814	91.4566	-62.2019	-14.2515	104.462	-86.8452	38.4516	87.0223	-53.9575	27.7468	102.16	-79.7225	23.2845	118.117	-105.705	65.0886	77.8498	-58.4827	61.8613	95.0956	-83.4201	54.6538	113.187	-104.847	92.5802	56.0687	-59.8899	94.4052	68.9277	-86.5545	98.5575	84.5785	-103.845	84.2741	57.4277	-13.3542	96.9768	48.8931	14.5245	57.2851	54.5593	12.8792	
17	0.141667	27.5594	29.2853	17.6853	8.13755	30.8697	-12.0927	11.7927	32.5872	-47.5792	38.2575	32.7737	-62.9914	13.9424	83.5066	-42.7662	-0.116713	95.1999	-62.1857	-11.6136	106.484	-83.0844	38.8153	89.7333	-56.209	27.6982	105.773	-81.4217	17.4073	121.477	-103.246	62.4443	81.933	-58.8816	62.157	97.6024	-83.9888	52.2919	112.896	-101.808	89.2142	60.3191	-61.7423	94.1079	70.2469	-85.5915	101.77	83.6143	-100.166	84.4299	58.9176	-12.9834	96.4137	49.1785	17.2134	53.768	56.4882	15.3375	
18	0.15	25.4541	30.5287	26.1486	3.48226	36.4016	-4.99042	3.91423	37.4898	-40.9258	30.1619	38.024	-61.9655	11.8373	84.6958	-35.9389	0.839469	97.5409	-56.4114	-9.58559	113.158	-81.736	34.4401	92.9859	-52.2785	28.6413	105.164	-75.8402	20.1401	123.658	-102.991	66.4231	81.6731	-55.4229	60.2961	97.3225	-76.3997	51.3697	115.533	-100.17	88.1352	59.8766	-56.5868	91.5507	72.6967	-83.0533	98.2233	83.2118	-97.5749	78.6012	61.522	-10.3623	91.093	49.7453	17.9201	55.3092	59.7886	16.7734	
19	0.158333	25.0559	35.3792	27.7558	3.35601	42.4083	3.12337	-0.275896	44.0595	-30.118	17.2916	43.7773	-56.719	13.1217	85.1038	-32.7443	-0.419034	100.678	-53.8129	-12.1207	114.036	-74.0449	38.3118	94.5845	-51.9177	26.9148	108.871	-75.2714	17.2766	126.909	-99.7152	63.2809	86.6132	-56.5795	56.6247	100.75	-75.5588	50.2526	118.929	-99.948	85.7707	61.3196	-54.4776	91.4239	72.3226	-78.5343	94.9655	90.6247	-96.4346	77.1567	64.3419	-9.6614	91.879	53.8438	17.4622	56.1664	60.4379	20.2946	
